<svg height="512" viewBox="0 0 60 60" width="512" xmlns="http://www.w3.org/2000/svg"><g id="Page-1" fill="none" fill-rule="evenodd"><g id="019---Rain" fill-rule="nonzero"><path id="Shape" d="m59 33.89c.0611759 4.9630059-3.9071294 9.0386837-8.87 9.11h-34.26c-4.9628706-.0713163-8.93117595-4.1469941-8.87-9.11-.01029813-3.0631399 1.50905846-5.9292842 4.05-7.64 1.0916072-.7256093 2.3320432-1.19718 3.63-1.38 1.0832751-3.04743 3.9461322-5.1008721 7.18-5.15.4849136-3.1167402 2.3568215-5.8455332 5.09-7.42 1.4950743-.8546358 3.1878962-1.3028372 4.91-1.3 3.9660428.0268956 7.5524981 2.3631704 9.18 5.98.9880598-.3851794 2.0395182-.5819039 3.1-.58 4.8122271.0695414 8.6730998 3.9972883 8.66 8.81 3.723548 1.2518186 6.2234845 4.7517296 6.2 8.68z" fill="#f5f5f5"/><path id="Shape" d="m52.8 25.21c.0130998-4.8127117-3.8477729-8.7404586-8.66-8.81-.5117425.0008741-1.0224029.0470544-1.526.138 4.1661235.7914888 7.1822808 4.4313602 7.186 8.672 3.723548 1.2518186 6.2234845 4.7517296 6.2 8.68.0611759 4.9630059-3.9071294 9.0386837-8.87 9.11h3c4.9628706-.0713163 8.9311759-4.1469941 8.87-9.11.0234845-3.9282704-2.476452-7.4281814-6.2-8.68z" fill="#cfd8dc"/><path id="Shape" d="m26.95 12.3c-2.7331785 1.5744668-4.6050864 4.3032598-5.09 7.42-3.2338678.0491279-6.0967249 2.10257-7.18 5.15-1.2979568.18282-2.5383928.6543907-3.63 1.38-3.92585927-2.5280051-5.82788695-7.2590957-4.74433306-11.8010217 1.08355388-4.54192602 4.91654216-7.90483086 9.56083516-8.38827998 4.6442931-.48344913 9.0877247 2.0179192 11.0834979 6.23930168z" fill="#ffdc00"/><path id="Shape" d="m17 6c-.4902103.00380218-.9796245.04021594-1.465.109 3.669595.51242802 6.8336067 2.84022323 8.415 6.191-2.7331785 1.5744668-4.6050864 4.3032598-5.09 7.42-3.2338678.0491279-6.0967249 2.10257-7.18 5.15-.6286475.0874014-1.2455053.2450541-1.839.47.3815296.3308544.7854943.6349138 1.209.91 1.0916072-.7256093 2.3320432-1.19718 3.63-1.38 1.0832751-3.04743 3.9461322-5.1008721 7.18-5.15.4849136-3.1167402 2.3568215-5.8455332 5.09-7.42-1.8154804-3.85081674-5.6926856-6.30573063-9.95-6.3z" fill="#fec108"/><path id="Shape" d="m36 52c0 1.6568542-1.3431458 3-3 3s-3-1.3431458-3-3c0-1.1 1.333-3.511 2.221-4.625.1898233-.235832.4762631-.3729761.779-.3729761s.5891767.1371441.779.3729761c.888 1.114 2.221 3.525 2.221 4.625z" fill="#02a9f4"/><path id="Shape" d="m26 56c0 1.6568542-1.3431458 3-3 3s-3-1.3431458-3-3c0-1.1 1.333-3.511 2.221-4.625.1898233-.235832.4762631-.3729761.779-.3729761s.5891767.1371441.779.3729761c.888 1.114 2.221 3.525 2.221 4.625z" fill="#02a9f4"/><path id="Shape" d="m16 52c0 1.6568542-1.3431458 3-3 3s-3-1.3431458-3-3c0-1.1 1.333-3.511 2.221-4.625.1898233-.235832.4762631-.3729761.779-.3729761s.5891767.1371441.779.3729761c.888 1.114 2.221 3.525 2.221 4.625z" fill="#02a9f4"/><path id="Shape" d="m40 56c0 1.6568542 1.3431458 3 3 3s3-1.3431458 3-3c0-1.1-1.333-3.511-2.221-4.625-.1898233-.235832-.4762631-.3729761-.779-.3729761s-.5891767.1371441-.779.3729761c-.888 1.114-2.221 3.525-2.221 4.625z" fill="#02a9f4"/><path id="Shape" d="m50 52c0 1.6568542 1.3431458 3 3 3s3-1.3431458 3-3c0-1.1-1.333-3.511-2.221-4.625-.1898233-.235832-.4762631-.3729761-.779-.3729761s-.5891767.1371441-.779.3729761c-.888 1.114-2.221 3.525-2.221 4.625z" fill="#02a9f4"/><g fill="#000"><path id="Shape" d="m53.771 24.5c-.3567738-5.0764644-4.5444624-9.0324456-9.633-9.1-.8792677-.0005948-1.754336.1212417-2.6.362-1.946832-3.5283497-5.6463018-5.7313617-9.676-5.762-1.5487724-.00098764-3.0801395.3265538-4.493.961-2.7293659-4.68541834-8.2616921-6.95834682-13.4966862-5.54504585-5.23499408 1.41330097-8.87177823 6.16163105-8.8723138 11.58404585-.00829947 3.598125 1.60861039 7.0075999 4.4 9.278-2.16656342 1.9409056-3.40322185 4.7132028-3.4 7.622-.05556615 5.5129216 4.3612325 10.0308137 9.874 10.1h34.251c4.7832191-.1230935 8.8298865-3.5721707 9.7092824-8.2754674s-1.6476793-9.3814952-6.0632824-11.2245326zm-46.771-7.5c-.00652666-4.5133379 3.0153688-8.46990324 7.3713487-9.651301 4.35598-1.18139775 8.962872.70614234 11.2376513 4.604301-2.3248696 1.6194334-3.959708 4.0501096-4.583 6.814-3.1134948.3563123-5.8025795 2.3415119-7.06 5.212-1.0030584.2048047-1.9669006.5687353-2.855 1.078-2.58497188-1.8694046-4.11441229-4.8668994-4.111-8.057zm43.125 25h-34.251c-4.1849662-.126088-7.5885258-3.4124362-7.86113787-7.5904169-.27261208-4.1779808 2.67504047-7.8787438 6.80813787-8.5475831.366153-.0517746.6738442-.3013891.8-.649.945157-2.64903 3.4299525-4.4375891 6.242-4.493.4894979-.0033094.9046478-.3604822.981-.844.530658-4.0301025 3.67892-7.2143766 7.7027266-7.7908358 4.0238065-.5764593 7.9394603 1.595823 9.5802734 5.3148358.2211876.4826081.7809397.708265 1.275.514.8712915-.3431384 1.7995757-.5185488 2.736-.517 4.2631895.0754152 7.6757865 3.5601658 7.662 7.824.003331.4299916.2811748.8097115.69.943 3.7181973 1.2711028 5.9973264 5.0172154 5.416924 8.9035796-.5804023 3.8863642-3.8545869 6.8031267-7.781924 6.9324204z"/><path id="Shape" d="m16 1v2c0 .55228475.4477153 1 1 1s1-.44771525 1-1v-2c0-.55228475-.4477153-1-1-1s-1 .44771525-1 1z"/><path id="Shape" d="m8.5 2.277c-.22994444.13261575-.39772752.3512138-.46637976.60762802-.06865224.25641423-.03253998.52960312.10037976.75937198l1 1.731c.17736158.31195078.50827321.50495322.8671183.5057421.3588451.00078889.6906021-.19075673.8693336-.50192468.1787314-.31116795.1770325-.694247-.0044519-1.00381742l-1-1.731c-.13244513-.22984281-.35078712-.39764313-.60697448-.46647238s-.52922544-.03304686-.75902552.09947238z"/><path id="Shape" d="m5.742 10.5c.27612934-.4782803.11226816-1.08984962-.366-1.366l-1.732-1c-.30957042-.18148438-.69264947-.18318331-1.00381742-.00445186s-.50271357.51048847-.50192468.86933356c.00078888.35884509.19379132.68975672.5057421.8671183l1.732 1c.47828031.2761293 1.08984962.1122682 1.366-.366z"/><path id="Shape" d="m1 18h2c.55228475 0 1-.4477153 1-1s-.44771525-1-1-1h-2c-.55228475 0-1 .4477153-1 1s.44771525 1 1 1z"/><path id="Shape" d="m4.376 23.134-1.732 1c-.31195078.1773616-.50495322.5082732-.5057421.8671183-.00078889.3588451.19075673.6906021.50192468.8693336.31116795.1787314.694247.1770325 1.00381742-.0044519l1.732-1c.31195078-.1773616.50495322-.5082732.5057421-.8671183.00078889-.3588451-.19075673-.6906021-.50192468-.8693336-.31116795-.1787314-.694247-.1770325-1.00381742.0044519z"/><path id="Shape" d="m24.134 2.644-1 1.731c-.1814844.30957042-.1831833.69264947-.0044519 1.00381742.1787315.31116795.5104885.50271357.8693336.50192468.3588451-.00078888.6897567-.19379132.8671183-.5057421l1-1.731c.1814844-.30957042.1831833-.69264947.0044519-1.00381742-.1787315-.31116795-.5104885-.50271357-.8693336-.50192468-.3588451.00078888-.6897567.19379132-.8671183.5057421z"/><path id="Shape" d="m37 52c0-1.531-1.616-4.217-2.44-5.249-.3907765-.4546745-.9604709-.7162357-1.56-.7162357s-1.1692235.2615612-1.56.7162357c-.824 1.032-2.44 3.718-2.44 5.249 0 2.209139 1.790861 4 4 4s4-1.790861 4-4zm-6 0c.3760805-1.4598457 1.0577717-2.8232281 2-4 .9438075 1.1757603 1.6256763 2.5394978 2 4 0 1.1045695-.8954305 2-2 2s-2-.8954305-2-2z"/><path id="Shape" d="m27 56c0-1.531-1.616-4.217-2.44-5.249-.3907765-.4546745-.9604709-.7162357-1.56-.7162357s-1.1692235.2615612-1.56.7162357c-.824 1.032-2.44 3.718-2.44 5.249 0 2.209139 1.790861 4 4 4s4-1.790861 4-4zm-6 0c.3760805-1.4598457 1.0577717-2.8232281 2-4 .9438075 1.1757603 1.6256763 2.5394978 2 4 0 1.1045695-.8954305 2-2 2s-2-.8954305-2-2z"/><path id="Shape" d="m13 56c2.209139 0 4-1.790861 4-4 0-1.531-1.616-4.217-2.44-5.249-.3907765-.4546745-.9604709-.7162357-1.56-.7162357s-1.1692235.2615612-1.56.7162357c-.824 1.032-2.44 3.718-2.44 5.249 0 2.209139 1.790861 4 4 4zm0-8c.9438075 1.1757603 1.6256763 2.5394978 2 4 0 1.1045695-.8954305 2-2 2s-2-.8954305-2-2c.3760805-1.4598457 1.0577717-2.8232281 2-4z"/><path id="Shape" d="m47 56c0-1.531-1.616-4.217-2.44-5.249-.3907765-.4546745-.9604709-.7162357-1.56-.7162357s-1.1692235.2615612-1.56.7162357c-.824 1.032-2.44 3.718-2.44 5.249 0 2.209139 1.790861 4 4 4s4-1.790861 4-4zm-6 0c.3760805-1.4598457 1.0577717-2.8232281 2-4 .9438075 1.1757603 1.6256763 2.5394978 2 4 0 1.1045695-.8954305 2-2 2s-2-.8954305-2-2z"/><path id="Shape" d="m57 52c0-1.531-1.616-4.217-2.44-5.249-.3907765-.4546745-.9604709-.7162357-1.56-.7162357s-1.1692235.2615612-1.56.7162357c-.824 1.032-2.44 3.718-2.44 5.249 0 2.209139 1.790861 4 4 4s4-1.790861 4-4zm-6 0c.3760805-1.4598457 1.0577717-2.8232281 2-4 .9438075 1.1757603 1.6256763 2.5394978 2 4 0 1.1045695-.8954305 2-2 2s-2-.8954305-2-2z"/></g><path id="Shape" d="m17 40h-2c-.5522847 0-1-.4477153-1-1s.4477153-1 1-1h2c.5522847 0 1 .4477153 1 1s-.4477153 1-1 1z" fill="#cfd8dc"/><path id="Shape" d="m51 40h-30c-.5522847 0-1-.4477153-1-1s.4477153-1 1-1h30c.5522847 0 1 .4477153 1 1s-.4477153 1-1 1z" fill="#cfd8dc"/></g></g></svg>